<svg width="17" height="17" viewBox="0 0 17 17" fill="none" xmlns="http://www.w3.org/2000/svg">
<g id="bi:github" clip-path="url(#clip0_320_296)">
<path id="Vector" d="M8.5 0.127594C4.08 0.127594 0.5 3.70759 0.5 8.12759C0.5 11.6676 2.79 14.6576 5.97 15.7176C6.37 15.7876 6.52 15.5476 6.52 15.3376C6.52 15.1476 6.51 14.5176 6.51 13.8476C4.5 14.2176 3.98 13.3576 3.82 12.9076C3.73 12.6776 3.34 11.9676 3 11.7776C2.72 11.6276 2.32 11.2576 2.99 11.2476C3.62 11.2376 4.07 11.8276 4.22 12.0676C4.94 13.2776 6.09 12.9376 6.55 12.7276C6.62 12.2076 6.83 11.8576 7.06 11.6576C5.28 11.4576 3.42 10.7676 3.42 7.70759C3.42 6.83759 3.73 6.11759 4.24 5.55759C4.16 5.35759 3.88 4.53759 4.32 3.43759C4.32 3.43759 4.99 3.22759 6.52 4.25759C7.16 4.07759 7.84 3.98759 8.52 3.98759C9.2 3.98759 9.88 4.07759 10.52 4.25759C12.05 3.21759 12.72 3.43759 12.72 3.43759C13.16 4.53759 12.88 5.35759 12.8 5.55759C13.31 6.11759 13.62 6.82759 13.62 7.70759C13.62 10.7776 11.75 11.4576 9.97 11.6576C10.26 11.9076 10.51 12.3876 10.51 13.1376C10.51 14.2076 10.5 15.0676 10.5 15.3376C10.5 15.5476 10.65 15.7976 11.05 15.7176C12.6384 15.1818 14.0187 14.1613 14.9964 12.7996C15.9741 11.438 16.5 9.8039 16.5 8.12759C16.5 3.70759 12.92 0.127594 8.5 0.127594Z" fill="#F8F8F8"/>
</g>
<defs>
<clipPath id="clip0_320_296">
<rect width="16" height="16" fill="white" transform="translate(0.5 0.127594)"/>
</clipPath>
</defs>
</svg>
