<svg width="17" height="17" viewBox="0 0 17 17" fill="none" xmlns="http://www.w3.org/2000/svg">
<g id="bxs:pen">
<path id="Vector" d="M8.2247 4.7936H5.6347C5.361 4.79351 5.09391 4.87766 4.86969 5.03462C4.64546 5.19158 4.47497 5.41373 4.38137 5.67093L1.8747 12.5656C1.78604 12.8089 1.8467 13.0816 2.02937 13.2649L2.2247 13.4603L6.50604 9.17893C6.50537 9.1616 6.5007 9.14426 6.5007 9.12693C6.5007 8.92915 6.55935 8.73581 6.66923 8.57136C6.77911 8.40691 6.93529 8.27874 7.11802 8.20305C7.30075 8.12736 7.50181 8.10756 7.69579 8.14614C7.88977 8.18473 8.06796 8.27997 8.20781 8.41982C8.34766 8.55968 8.4429 8.73786 8.48149 8.93184C8.52007 9.12582 8.50027 9.32689 8.42458 9.50961C8.34889 9.69234 8.22072 9.84852 8.05627 9.9584C7.89182 10.0683 7.69848 10.1269 7.5007 10.1269C7.48337 10.1269 7.46604 10.1223 7.4487 10.1216L3.16737 14.4029L3.3627 14.5983C3.45234 14.6881 3.56583 14.7504 3.68975 14.7779C3.81368 14.8053 3.94287 14.7966 4.06204 14.7529L10.9567 12.2456C11.2139 12.152 11.4361 11.9815 11.593 11.7573C11.75 11.5331 11.8341 11.266 11.834 10.9923V8.40226L13.1667 7.07026L9.55737 3.46093L8.2247 4.7936ZM13.7934 6.16826L10.46 2.83493L11.8734 1.42093L15.2067 4.75426L13.7934 6.16826Z" fill="white"/>
</g>
</svg>
