<svg width="104" height="104" viewBox="0 0 104 104" fill="none" xmlns="http://www.w3.org/2000/svg">
<path d="M51.5185 18.8356C47.7822 19.3074 44.3637 20.7711 41.5519 23.1304C39.4911 24.8541 38.1719 26.5007 36.7852 29.1296C36.5637 29.5533 36.3326 29.9289 36.2748 29.9674C36.217 29.9963 35.9763 30.0541 35.7356 30.0926C35.4948 30.1215 34.8015 30.2756 34.1948 30.4393C29.1489 31.7393 24.7289 35.4659 22.5911 40.223C22.1481 41.2245 21.5607 43.1215 21.3585 44.2482C21.1659 45.2882 21.1948 48.6489 21.4067 49.7852C21.6185 50.96 22.2541 52.8956 22.7452 53.8682C24.1126 56.5933 26.2889 58.9815 28.7637 60.4548C29.2259 60.7341 29.6689 60.9941 29.7363 61.0422C29.8326 61.1 29.8711 61.7837 29.8807 64.2296C29.9 67.2052 29.8904 67.34 29.717 67.4459C28.4556 68.1682 27.897 69.8148 28.5037 71.0089C28.7733 71.5289 29.4667 72.203 30.0059 72.463C30.4296 72.6652 31.3637 72.6941 31.9415 72.5304C32.5674 72.3474 33.2607 71.7407 33.5689 71.0956C33.7904 70.643 33.8385 70.4119 33.8385 69.863C33.8385 69.0348 33.617 68.563 32.8756 67.7926L32.3556 67.2437V62.3904V57.5274L31.6044 56.9593C30.4778 56.083 30.4296 56.0444 29.7556 55.3704C28.0511 53.6659 26.9437 51.6341 26.4237 49.2459C26.2022 48.2059 26.2022 45.9719 26.4237 44.9222C27.1556 41.5326 29.1778 38.6533 32.0185 36.9585C34.3007 35.6007 36.0148 35.1482 38.923 35.1482H40.6178L40.9259 34.1659C41.6193 31.9319 42.7844 29.9867 44.383 28.4074C45.5193 27.2807 46.2993 26.7222 47.8304 25.9422C48.9859 25.3548 49.92 25.037 51.1911 24.7867C52.3178 24.5652 54.8022 24.5652 55.9193 24.777C59.6844 25.5185 63.103 28.0222 65.1252 31.537C65.8282 32.7696 66.223 33.8963 66.6178 35.8222L66.6852 36.1593L67.7926 36.3133C69.1985 36.5156 70.0267 36.7274 71.0667 37.1415C73.1948 38.0082 74.9859 39.4719 76.2089 41.3882C76.6037 42.0141 76.7578 42.303 77.1815 43.2852C77.6437 44.3252 77.9711 46.5496 77.8556 47.8111C77.6437 50.1896 76.8637 52.2407 75.4963 54.003C74.6489 55.1104 73.8785 55.7941 72.4052 56.7667C71.7311 57.2096 71.163 57.643 71.1244 57.7296C71.0956 57.8163 71.0667 60.0022 71.0667 62.5926V67.3015L70.7007 67.5615C69.2563 68.6015 69.0444 70.4985 70.2289 71.7407C70.9222 72.463 71.3459 72.6459 72.3185 72.6363C73.06 72.6363 73.4644 72.4726 74.0711 71.943C75.3807 70.7874 75.3422 69.0637 73.9844 67.7252L73.4741 67.2245L73.4933 64.2585L73.5222 61.2926L74.2444 60.917C76.1222 59.9541 77.7111 58.7889 78.6741 57.6622C78.963 57.3252 79.223 57.0363 79.2519 57.0074C79.2807 56.9785 79.5022 56.6993 79.7526 56.3815C81.1104 54.5904 82.1119 52.3852 82.6415 50.0259C82.8245 49.1978 82.8533 48.7741 82.8533 47.0407C82.8533 44.7489 82.7378 44.0363 82.0445 41.9563C80.9178 38.6052 78.4911 35.6104 75.4482 33.8096C74.3889 33.1933 73.8015 32.9237 72.5111 32.5C71.9044 32.2978 71.3556 32.0956 71.2882 32.0474C71.2207 31.9993 71.0859 31.6911 70.98 31.3637C70.6719 30.4489 69.6222 28.3689 68.9482 27.3482C66.0978 23.0341 61.4274 19.9237 56.4778 19.057C55.3607 18.8644 52.3852 18.7296 51.5185 18.8356Z" fill="#FAFAFA"/>
<path d="M53.7141 29.1777C52.5393 29.3799 51.2489 30.3429 50.7674 31.3637L50.5074 31.9222L50.4785 35.2829C50.4496 39.0577 50.4785 39.2792 51.1141 39.9822C51.7111 40.6466 52.0674 40.7622 53.5407 40.8296C54.5807 40.8681 54.8985 40.9162 55.1392 41.0607C55.6496 41.3688 55.9192 42.2066 55.64 42.5918C55.5244 42.7362 54.8022 42.7555 46.4148 42.7748L37.3148 42.8037L36.6889 43.1118C35.88 43.5066 35.3793 44.0074 35.0326 44.7392C34.3489 46.1933 34.5704 47.5799 35.6489 48.6585C35.9089 48.9185 36.3615 49.2362 36.6696 49.3807C37.2089 49.6311 37.2763 49.6407 39.5778 49.6888L41.937 49.737L42.1778 50.1896C42.823 51.374 43.3141 51.7111 44.4215 51.7111C45.0859 51.7111 45.163 51.6918 45.5674 51.3837C45.9333 51.0948 46.0296 50.9503 46.2222 50.3725C46.4148 49.7659 46.4244 49.6503 46.3185 49.2074C46.1644 48.5718 45.5963 47.8496 45.0474 47.5799C44.643 47.3874 44.4792 47.3777 41.9178 47.3777C38.6822 47.3777 38.4126 47.3488 38.037 46.9733C37.4689 46.4051 37.623 45.5288 38.3259 45.2881C38.5763 45.2111 41.86 45.1822 50.8541 45.1725C57.5659 45.1725 63.1318 45.134 63.2281 45.1051C63.3341 45.0666 63.5555 44.9029 63.7289 44.7488C64.3067 44.1903 64.0852 43.2177 63.3052 42.8903C63.0644 42.7844 62.4385 42.7555 60.8207 42.7555C59.6363 42.7555 58.5867 42.7266 58.5 42.6977C58.4133 42.6592 58.1341 42.2162 57.8741 41.7059C57.0267 40.0111 56.1792 39.3562 54.5518 39.1733C53.1844 39.0096 53.1748 39.0096 52.9437 38.6822C52.7222 38.374 52.7222 38.3451 52.7222 35.4274V32.4807L53.0015 32.0762C53.3578 31.5562 53.743 31.354 54.3689 31.354C54.7637 31.354 54.937 31.4022 55.2259 31.6237C55.8518 32.1051 55.9481 32.3555 55.9481 33.5785C55.9481 34.7629 56.0155 35.0422 56.3911 35.3888C56.8341 35.8029 57.6911 35.6777 58.0378 35.1577C58.2496 34.8303 58.3267 33.1644 58.163 32.3266C57.9607 31.2481 57.4118 30.4296 56.4874 29.8325C55.6207 29.274 54.5807 29.0237 53.7141 29.1777Z" fill="#FAFAFA"/>
<path d="M45.7407 32.7696C45.2785 32.9237 44.537 33.6748 44.46 34.0792C44.3252 34.7244 44.3829 35.3889 44.614 35.8318C44.8933 36.3807 45.0955 36.7274 45.1726 36.7852C45.317 36.9007 45.3555 37.2955 45.2592 37.6326C44.9318 38.6918 44.5466 39.1926 44.0748 39.1926C43.6126 39.2022 43.0252 39.3563 42.9385 39.5007C42.8422 39.6452 42.8229 40.2615 42.9096 40.4829C42.9577 40.6081 43.1407 40.637 43.9496 40.637C45.5096 40.637 46.3185 40.3481 47.1274 39.52C47.7533 38.8748 48.2348 37.5363 48.0614 36.92C48.0037 36.7178 48.0518 36.4674 48.2251 36.0148C48.5526 35.1192 48.5044 34.1755 48.0903 33.5881C47.58 32.8563 46.5496 32.5 45.7407 32.7696Z" fill="#FAFAFA"/>
<path d="M60.5511 35.4274C60.0793 35.5814 59.4245 36.1207 59.1548 36.5637C58.943 36.9392 58.8948 37.1222 58.8948 37.7385C58.8948 38.6533 59.1163 39.1252 59.8 39.6644C60.8689 40.5118 62.2556 40.2422 63.1126 39.0192C63.6519 38.2585 63.5556 37.0066 62.9104 36.294C62.2459 35.5622 61.2637 35.1963 60.5511 35.4274Z" fill="#FAFAFA"/>
<path d="M36.323 39.2889C34.3393 39.5585 32.7697 40.5022 31.383 42.2548C30.16 43.7859 29.6882 45.2785 29.7845 47.2815C29.8519 48.5718 29.9867 49.1304 30.4874 50.1126C31.5082 52.1733 33.1163 53.5022 35.3119 54.1378C36.0534 54.3593 36.1304 54.3593 41.6963 54.3593C47.1852 54.3593 47.3393 54.3496 47.6667 54.1667C47.8497 54.0607 48.0808 53.8007 48.1867 53.5985C48.3408 53.2904 48.3504 53.1748 48.2637 52.8763C48.1193 52.4237 47.7245 52.0481 47.2334 51.9133C46.9926 51.8555 44.9223 51.817 41.5422 51.8074C38.4222 51.8074 36.0245 51.7689 35.7163 51.7111C34.4067 51.4704 32.8948 50.3341 32.3171 49.1593C31.8934 48.2926 31.6526 47.1659 31.7104 46.3667C31.7682 45.5289 31.9993 44.643 32.3267 43.9304C32.6734 43.1889 34.0022 41.8696 34.8978 41.3785C36.0822 40.7333 36.2363 40.7044 38.5185 40.6563C39.7126 40.637 40.6371 40.5793 40.7141 40.5215C40.8874 40.3674 40.8585 39.5296 40.666 39.3756C40.483 39.2118 37.3148 39.1541 36.323 39.2889Z" fill="#FAFAFA"/>
<path d="M69.2852 40.6755C68.8711 40.8488 68.3896 41.4362 68.3126 41.8503C68.1296 42.8325 68.5244 43.7185 69.3815 44.2481C69.8148 44.5177 69.9207 44.537 70.7296 44.537C71.2785 44.537 71.6733 44.5851 71.76 44.6622C72.0104 44.8644 72.4148 45.7792 72.5207 46.3859C72.7422 47.657 72.2222 49.2844 71.2881 50.1896C70.7681 50.7 69.9304 51.22 69.1504 51.5377C68.6207 51.7496 68.5052 51.7592 63.5074 51.8074C58.837 51.8555 58.3748 51.8748 58.0859 52.0288C57.0652 52.5874 57.2481 54.0125 58.3844 54.3207C58.6156 54.3785 60.4163 54.4074 63.4881 54.3881C68.8807 54.3496 68.8133 54.3592 70.5081 53.4733C72.02 52.7029 73.4548 51.0851 74.0133 49.5444C74.6585 47.7629 74.5333 45.654 73.6859 43.9111C73.3874 43.314 73.1178 42.977 72.1259 41.9851C71.1918 41.0414 70.8356 40.7525 70.5274 40.6562C70.0267 40.5118 69.6511 40.5118 69.2852 40.6755Z" fill="#FAFAFA"/>
<path d="M52.5296 47.474C51.0756 47.7725 50.2667 48.6488 50.2667 49.9296C50.2667 50.9888 50.6326 51.5377 51.5474 51.8459C52.2215 52.077 52.9822 52.0096 53.6948 51.6629C54.3689 51.3355 54.5133 51.1429 54.5904 50.4881C54.6289 50.1799 54.6867 49.8718 54.7252 49.8044C54.7926 49.7177 56.2081 49.6888 61.2733 49.6888C65.2407 49.6888 67.8793 49.6503 68.0911 49.5925C68.4763 49.4866 68.8904 49.1014 69.0348 48.697C69.1985 48.2733 68.9578 47.8014 68.4474 47.5703C68.0526 47.3874 67.7637 47.3777 60.4741 47.3874C56.3141 47.397 52.7415 47.4355 52.5296 47.474Z" fill="#FAFAFA"/>
<path d="M37.2089 59.5015C36.554 59.9059 36.5926 59.4822 36.5926 66.3481V72.5689L36.0052 73.0889C35.1866 73.8015 34.917 74.3985 34.9748 75.3518C35.0518 76.4593 35.514 77.2007 36.4481 77.6918C36.8622 77.9133 37.0548 77.9518 37.7481 77.9518C38.4703 77.9518 38.6148 77.923 39 77.6918C39.674 77.2778 39.9533 76.9889 40.2326 76.3918C40.7429 75.2748 40.4926 74.1289 39.4911 73.1081L39 72.5978V66.3481V60.0889L38.6822 59.7422C38.2778 59.2993 37.6807 59.203 37.2089 59.5015Z" fill="#FAFAFA"/>
<path d="M43.9015 59.6941L43.526 60.0696V68.3415V76.623L43.16 76.8733C42.3993 77.3741 41.8022 78.6548 41.9371 79.5215C42.0237 80.0896 42.3608 80.7637 42.7748 81.1681C43.7763 82.16 45.5771 82.2178 46.54 81.2933C47.4645 80.4074 47.7437 79.0593 47.2237 78.0193C47.0793 77.7207 46.7519 77.3259 46.4534 77.0563L45.9334 76.6037V68.3607C45.9334 60.1467 45.9334 60.1178 45.7311 59.8578C45.4615 59.5207 45.0571 59.3185 44.6237 59.3185C44.3445 59.3185 44.2 59.3956 43.9015 59.6941Z" fill="#FAFAFA"/>
<path d="M51.0563 59.5111C50.4785 59.8674 50.4592 59.9926 50.4592 63.8829V67.3881L50.2281 67.5422C49.0629 68.2933 48.5911 69.8341 49.1496 71.0185C49.4 71.5674 50.1029 72.2607 50.6326 72.4822C51.0755 72.6748 52.1348 72.6941 52.5778 72.5111C53.0978 72.3089 53.7237 71.76 54.0896 71.1918C54.3785 70.7296 54.417 70.6044 54.4266 69.9592C54.4363 69.0444 54.1474 68.4089 53.3963 67.7155L52.8666 67.2244V63.6518V60.0889L52.5489 59.7422C52.1444 59.2992 51.5474 59.2029 51.0563 59.5111Z" fill="#FAFAFA"/>
<path d="M58.1052 59.4148C57.9992 59.4533 57.7874 59.6266 57.6526 59.8L57.3926 60.1081V68.38V76.6518L57.017 76.8829C55.8807 77.6052 55.4281 79.0977 55.977 80.3111C56.4489 81.3607 57.3733 81.9481 58.5385 81.9481C59.3185 81.9481 59.877 81.7266 60.397 81.2163C61.0037 80.6192 61.1866 80.2148 61.2252 79.3385C61.2733 78.414 61.1 77.9807 60.3489 77.1622L59.8 76.5748V68.3511C59.8 60.1466 59.8 60.1177 59.5978 59.8577C59.2318 59.3859 58.6155 59.2029 58.1052 59.4148Z" fill="#FAFAFA"/>
<path d="M64.9422 59.5015C64.2874 59.8963 64.3259 59.4822 64.3259 66.3192V72.5111L63.7674 73.0696C63.0452 73.7822 62.7563 74.3889 62.7466 75.2074C62.737 75.9585 63.0066 76.6133 63.5363 77.1622C64.1333 77.7881 64.5378 77.9518 65.4815 77.9518C66.1941 77.9518 66.3578 77.923 66.7333 77.6918C67.7926 77.0659 68.3222 76.1511 68.2548 75.063C68.2066 74.3022 67.9659 73.8304 67.2918 73.1755L66.7333 72.6459V66.4252V60.2141L66.5118 59.8867C66.1266 59.3089 65.5007 59.1548 64.9422 59.5015Z" fill="#FAFAFA"/>
<path d="M51.1237 76.3244C50.5363 76.7 50.5074 76.8348 50.4785 79.7141L50.4496 82.3429L49.9585 82.7859C49.2941 83.4118 48.9281 84.1726 48.9185 84.8948C48.9185 85.7615 49.5637 86.8015 50.4304 87.3118C51.0659 87.6778 52.1444 87.7355 52.8474 87.437C53.483 87.1674 54.1089 86.4837 54.3496 85.8096C54.7733 84.6059 54.417 83.5563 53.2519 82.5837L52.9148 82.3044L52.8667 79.5792L52.8185 76.8444L52.52 76.5459C52.1444 76.1703 51.5185 76.0741 51.1237 76.3244Z" fill="#FAFAFA"/>
</svg>
