<svg width="17" height="17" viewBox="0 0 17 17" fill="none" xmlns="http://www.w3.org/2000/svg">
<g id="material-symbols:computer-outline">
<path id="Vector" d="M1.1665 14.1276V12.7943H15.8332V14.1276H1.1665ZM3.1665 12.1276C2.79984 12.1276 2.48606 11.9971 2.22517 11.7363C1.96428 11.4754 1.83362 11.1614 1.83317 10.7943V3.46093C1.83317 3.09426 1.96384 2.78048 2.22517 2.51959C2.4865 2.25871 2.80028 2.12804 3.1665 2.12759H13.8332C14.1998 2.12759 14.5138 2.25826 14.7752 2.51959C15.0365 2.78093 15.1669 3.09471 15.1665 3.46093V10.7943C15.1665 11.1609 15.0361 11.4749 14.7752 11.7363C14.5143 11.9976 14.2003 12.128 13.8332 12.1276H3.1665ZM3.1665 10.7943H13.8332V3.46093H3.1665V10.7943Z" fill="white"/>
</g>
</svg>
