<svg width="16" height="17" viewBox="0 0 16 17" fill="none" xmlns="http://www.w3.org/2000/svg">
<g id="mdi:brain">
<path id="Vector" d="M14.22 8.73426C14.28 9.7676 13.8067 10.7609 12.96 11.3676L13.4734 12.3609C13.6267 12.6609 13.6467 13.0143 13.5134 13.3276C13.3867 13.6409 13.1267 13.8876 12.8067 13.9943L12.28 14.1609C12.0607 14.2348 11.824 14.2392 11.6021 14.1736C11.3802 14.108 11.1839 13.9755 11.04 13.7943L9.62671 12.1276C9.03337 12.0276 8.47337 11.7743 8.00004 11.3943C7.66671 11.4943 7.33337 11.5476 7.00004 11.5476C6.41337 11.5476 5.8267 11.3676 5.33337 11.0209C4.98004 11.1276 4.62004 11.1743 4.25337 11.1676C3.7267 11.1743 3.2067 11.0676 2.72004 10.8676C2.2516 10.6586 1.85133 10.3221 1.56489 9.89659C1.27845 9.47106 1.11738 8.97359 1.10004 8.46093C1.0467 7.98093 1.1267 7.49426 1.33337 7.05426C1.14004 6.55426 1.12004 6.0076 1.2867 5.50093C1.53337 4.8676 2.00004 4.34093 2.58004 4.0076C2.9667 2.88093 4.05337 2.1276 5.24671 2.2076C6.31337 1.2076 7.9467 1.10093 9.13337 1.96093C9.41337 1.8876 9.70671 1.8476 10 1.8476C10.9067 1.8276 11.7667 2.2276 12.3334 2.94093C13.6934 3.29426 14.6667 4.5076 14.72 5.92093C14.7534 6.66093 14.5534 7.3876 14.1467 8.0076C14.1934 8.2476 14.22 8.4876 14.22 8.73426ZM10.8867 7.79426C11.2667 7.84093 11.5667 8.1276 11.5667 8.5076C11.5667 8.68441 11.4965 8.85398 11.3714 8.979C11.2464 9.10403 11.0768 9.17426 10.9 9.17426H10.48C10.2667 9.77426 9.89337 10.3009 9.40004 10.7009C9.56671 10.7609 9.74004 10.7943 9.91337 10.8409C13.3334 10.7943 12.9334 8.7076 12.9334 8.67426C12.9157 8.21633 12.7168 7.78417 12.3805 7.47287C12.0442 7.16156 11.598 6.99659 11.14 7.01426C10.9632 7.01426 10.7937 6.94402 10.6686 6.819C10.5436 6.69398 10.4734 6.52441 10.4734 6.3476C10.4734 6.17078 10.5436 6.00122 10.6686 5.87619C10.7937 5.75117 10.9632 5.68093 11.14 5.68093C11.96 5.70093 12.7467 6.0076 13.36 6.5476C13.3934 6.35426 13.4134 6.15426 13.4134 5.95426C13.3734 5.1276 13 4.4076 11.5 4.2676C10.6667 2.29426 8.56671 3.3876 8.56671 4.00093C8.54671 4.15426 8.70671 4.48093 8.73337 4.50093C8.91018 4.50093 9.07975 4.57117 9.20478 4.69619C9.3298 4.82122 9.40004 4.99078 9.40004 5.1676C9.40004 5.53426 9.10004 5.83426 8.73337 5.83426C8.38004 5.82093 8.04671 5.6876 7.78004 5.46093C7.46004 5.6676 7.09337 5.79426 6.71337 5.83426C6.33337 5.8676 6.02004 5.60093 6.00004 5.23426C5.98776 5.14718 5.9934 5.0585 6.01663 4.97368C6.03986 4.88885 6.08019 4.80967 6.13513 4.741C6.19007 4.67233 6.25846 4.6156 6.33612 4.57432C6.41377 4.53304 6.49905 4.50806 6.58671 4.50093C6.69337 4.4876 7.21337 4.4076 7.21337 3.9876C7.21337 3.5476 7.38004 3.1276 7.66671 2.79426C7.05337 2.6276 6.39337 2.8476 5.72671 3.65426C4.50004 3.46093 4.00004 3.6276 3.63337 4.9276C3.00004 5.24093 2.6667 5.46093 2.52004 6.1276C3.24004 5.98093 3.98004 6.04093 4.6667 6.29426C5.00004 6.42093 5.18671 6.79426 5.06004 7.15426C4.93337 7.50093 4.54671 7.67426 4.20004 7.5476C3.71337 7.33426 3.1667 7.32093 2.6667 7.5076C2.45337 7.6876 2.45337 8.06093 2.45337 8.35426C2.45337 8.8476 2.70004 9.3076 3.12004 9.57426C3.47337 9.75426 3.8667 9.8476 4.26004 9.84093C4.16004 9.6676 4.07337 9.4876 4.00004 9.30093C3.94756 9.12965 3.96354 8.94468 4.04464 8.78495C4.12573 8.62521 4.26561 8.50314 4.43486 8.44443C4.6041 8.38571 4.78953 8.39491 4.95213 8.4701C5.11473 8.54529 5.24183 8.68061 5.3067 8.8476C5.57337 9.6076 6.25337 10.1276 7.05337 10.2143C7.9667 10.1676 8.78004 9.6276 9.18004 8.79426C9.33337 7.87426 10.0734 7.79426 10.8867 7.79426ZM12.22 12.7743L11.8067 11.9076L11.3334 12.0143L12 12.8476L12.22 12.7743ZM9.12004 7.03426C9.12583 6.86396 9.06619 6.69789 8.95337 6.57019C8.84054 6.44249 8.68309 6.36283 8.51337 6.3476C8.04004 6.32093 7.58004 6.48093 7.22671 6.79426C6.8467 7.18093 6.64671 7.71426 6.66671 8.25426C6.66671 8.43107 6.73694 8.60064 6.86197 8.72567C6.98699 8.85069 7.15656 8.92093 7.33337 8.92093C7.71337 8.92093 8.00004 8.62093 8.00004 8.25426C8.00004 8.07426 8.0467 7.89426 8.15337 7.7476C8.23337 7.68093 8.33337 7.6476 8.44004 7.6476C8.8067 7.6676 9.12004 7.39426 9.12004 7.03426Z" fill="white"/>
</g>
</svg>
