<svg width="16" height="17" viewBox="0 0 16 17" fill="none" xmlns="http://www.w3.org/2000/svg">
<g id="nimbus:marketing" clip-path="url(#clip0_319_209)">
<path id="Vector" d="M14.25 2.2276C14.0781 2.11638 13.8815 2.04909 13.6775 2.03166C13.4735 2.01422 13.2683 2.04716 13.08 2.1276L6.91 4.5576C6.76393 4.61705 6.60771 4.64761 6.45 4.6476H2.5C2.16848 4.6476 1.85054 4.77929 1.61612 5.01371C1.3817 5.24813 1.25 5.56607 1.25 5.8976V5.9976H0V8.9976H1.25V9.1276C1.25783 9.45389 1.39298 9.76418 1.62656 9.99215C1.86013 10.2201 2.17361 10.3477 2.5 10.3476L4 13.5276C4.10157 13.7417 4.26148 13.9229 4.46136 14.0503C4.66124 14.1776 4.893 14.246 5.13 14.2476H5.76C6.08979 14.245 6.40516 14.1121 6.63743 13.878C6.86969 13.6438 7.00001 13.3274 7 12.9976V10.4676L13.08 12.8976C13.2295 12.9571 13.389 12.9876 13.55 12.9876C13.7997 12.9836 14.0429 12.9071 14.25 12.7676C14.4145 12.6565 14.5501 12.5079 14.6458 12.334C14.7414 12.1601 14.7943 11.966 14.8 11.7676V3.2576C14.7991 3.05411 14.7485 2.85393 14.6527 2.67443C14.5568 2.49493 14.4186 2.34155 14.25 2.2276ZM5.75 5.8976V9.1276H2.5V5.8976H5.75ZM5.75 12.9976H5.12L3.89 10.3476H5.75V12.9976ZM7.37 9.2776C7.25127 9.21692 7.12747 9.16673 7 9.1276V5.8276C7.12624 5.80155 7.25003 5.76475 7.37 5.7176L13.55 3.2576V11.7376L7.37 9.2776ZM14.83 6.2476V8.7476C15.1615 8.7476 15.4795 8.6159 15.7139 8.38148C15.9483 8.14706 16.08 7.82912 16.08 7.4976C16.08 7.16607 15.9483 6.84813 15.7139 6.61371C15.4795 6.37929 15.1615 6.2476 14.83 6.2476Z" fill="white"/>
</g>
<defs>
<clipPath id="clip0_319_209">
<rect width="16" height="16" fill="white" transform="translate(0 0.127594)"/>
</clipPath>
</defs>
</svg>
