<svg width="16" height="17" viewBox="0 0 16 17" fill="none" xmlns="http://www.w3.org/2000/svg">
<g id="ri:instagram-line">
<path id="Vector" d="M8.00083 6.12759C7.4704 6.12759 6.96169 6.3383 6.58662 6.71337C6.21154 7.08845 6.00083 7.59716 6.00083 8.12759C6.00083 8.65802 6.21154 9.16673 6.58662 9.5418C6.96169 9.91687 7.4704 10.1276 8.00083 10.1276C8.53126 10.1276 9.03997 9.91687 9.41504 9.5418C9.79012 9.16673 10.0008 8.65802 10.0008 8.12759C10.0008 7.59716 9.79012 7.08845 9.41504 6.71337C9.03997 6.3383 8.53126 6.12759 8.00083 6.12759ZM8.00083 4.79426C8.88488 4.79426 9.73273 5.14544 10.3579 5.77057C10.983 6.39569 11.3342 7.24353 11.3342 8.12759C11.3342 9.01164 10.983 9.85949 10.3579 10.4846C9.73273 11.1097 8.88488 11.4609 8.00083 11.4609C7.11677 11.4609 6.26893 11.1097 5.64381 10.4846C5.01869 9.85949 4.6675 9.01164 4.6675 8.12759C4.6675 7.24353 5.01869 6.39569 5.64381 5.77057C6.26893 5.14544 7.11677 4.79426 8.00083 4.79426ZM12.3342 4.62759C12.3342 4.8486 12.2464 5.06056 12.0901 5.21684C11.9338 5.37312 11.7218 5.46092 11.5008 5.46092C11.2798 5.46092 11.0679 5.37312 10.9116 5.21684C10.7553 5.06056 10.6675 4.8486 10.6675 4.62759C10.6675 4.40657 10.7553 4.19461 10.9116 4.03833C11.0679 3.88205 11.2798 3.79426 11.5008 3.79426C11.7218 3.79426 11.9338 3.88205 12.0901 4.03833C12.2464 4.19461 12.3342 4.40657 12.3342 4.62759ZM8.00083 2.79426C6.3515 2.79426 6.08216 2.79892 5.31483 2.83292C4.79216 2.85759 4.4415 2.92759 4.11616 3.05426C3.84391 3.15421 3.59777 3.31443 3.39616 3.52292C3.1875 3.72452 3.02706 3.97064 2.92683 4.24292C2.80016 4.56959 2.73016 4.91959 2.70616 5.44159C2.6715 6.17759 2.66683 6.43492 2.66683 8.12759C2.66683 9.77759 2.6715 10.0463 2.7055 10.8136C2.73016 11.3356 2.80016 11.6869 2.92616 12.0116C3.0395 12.3016 3.17283 12.5103 3.39416 12.7316C3.61883 12.9556 3.8275 13.0896 4.11416 13.2003C4.4435 13.3276 4.79416 13.3983 5.31416 13.4223C6.05016 13.4569 6.3075 13.4609 8.00016 13.4609C9.65016 13.4609 9.91883 13.4563 10.6862 13.4223C11.2075 13.3976 11.5582 13.3276 11.8842 13.2016C12.1562 13.1011 12.4022 12.941 12.6042 12.7329C12.8288 12.5089 12.9628 12.3003 13.0735 12.0129C13.2002 11.6849 13.2708 11.3343 13.2948 10.8129C13.3295 10.0776 13.3335 9.81959 13.3335 8.12759C13.3335 6.47826 13.3288 6.20892 13.2948 5.44159C13.2702 4.92026 13.1995 4.56826 13.0735 4.24292C12.973 3.97093 12.8129 3.72491 12.6048 3.52292C12.4033 3.31415 12.1572 3.1537 11.8848 3.05359C11.5582 2.92692 11.2075 2.85692 10.6862 2.83292C9.95083 2.79826 9.6935 2.79426 8.00016 2.79426M8.00016 1.46092C9.8115 1.46092 10.0375 1.46759 10.7488 1.50092C11.4582 1.53426 11.9422 1.64559 12.3668 1.81092C12.8068 1.98026 13.1775 2.20959 13.5482 2.57959C13.8872 2.91285 14.1495 3.31598 14.3168 3.76092C14.4815 4.18559 14.5935 4.66959 14.6268 5.37959C14.6582 6.09026 14.6668 6.31626 14.6668 8.12759C14.6668 9.93892 14.6602 10.1649 14.6268 10.8756C14.5935 11.5856 14.4815 12.0689 14.3168 12.4943C14.1499 12.9394 13.8876 13.3427 13.5482 13.6756C13.2148 14.0145 12.8117 14.2768 12.3668 14.4443C11.9422 14.6089 11.4582 14.7209 10.7488 14.7543C10.0375 14.7856 9.8115 14.7943 8.00016 14.7943C6.18883 14.7943 5.96283 14.7876 5.2515 14.7543C4.54216 14.7209 4.05883 14.6089 3.6335 14.4443C3.18838 14.2772 2.78518 14.0149 2.45216 13.6756C2.11312 13.3424 1.8508 12.9392 1.6835 12.4943C1.51816 12.0696 1.40683 11.5856 1.3735 10.8756C1.3415 10.1649 1.3335 9.93892 1.3335 8.12759C1.3335 6.31626 1.34016 6.09026 1.3735 5.37959C1.40683 4.66959 1.51816 4.18626 1.6835 3.76092C1.85032 3.31571 2.1127 2.91247 2.45216 2.57959C2.78528 2.24041 3.18845 1.97808 3.6335 1.81092C4.05816 1.64559 4.5415 1.53426 5.2515 1.50092C5.9635 1.46959 6.1895 1.46092 8.00083 1.46092" fill="#F8F8F8"/>
</g>
</svg>
