<svg width="17" height="17" viewBox="0 0 17 17" fill="none" xmlns="http://www.w3.org/2000/svg">
<g id="ri:tiktok-line">
<path id="Vector" d="M7.83311 1.46093V5.73693C6.90998 5.5656 5.95649 5.68297 5.10247 6.07305C4.24844 6.46313 3.53541 7.10696 3.06047 7.91686C2.58554 8.72677 2.37178 9.66338 2.4483 10.5991C2.52483 11.5349 2.88793 12.4243 3.48815 13.1463C4.08837 13.8683 4.89653 14.3877 5.80258 14.6339C6.70863 14.88 7.66853 14.8409 8.55156 14.5218C9.43458 14.2028 10.1978 13.6194 10.7373 12.8509C11.2768 12.0825 11.5663 11.1665 11.5664 10.2276V7.73693C12.2831 8.04168 13.0543 8.19729 13.8331 8.19426H14.4998V4.46093H13.8331C12.5644 4.46093 11.5664 3.43626 11.5664 2.1276V1.46093H7.83311ZM9.16644 2.79426H10.2918C10.5544 4.27426 11.6784 5.45826 13.1664 5.73426V6.81293C12.4744 6.7116 11.8498 6.4516 11.2711 6.06426L10.2331 5.3696V10.2276C10.233 10.8742 10.0391 11.5059 9.67641 12.0412C9.31369 12.5764 8.79882 12.9906 8.1983 13.2303C7.59778 13.47 6.93919 13.5241 6.3076 13.3857C5.676 13.2473 5.10042 12.9227 4.65518 12.4538C4.20993 11.9849 3.91549 11.3934 3.80987 10.7555C3.70425 10.1176 3.79231 9.46265 4.06267 8.87531C4.33304 8.28796 4.77329 7.79517 5.32656 7.46057C5.87983 7.12597 6.52072 6.96493 7.16644 6.99826V8.0676C6.73209 8.03409 6.29772 8.13229 5.92003 8.34939C5.54233 8.56649 5.23886 8.8924 5.0492 9.2846C4.85955 9.67679 4.79252 10.1171 4.85688 10.5479C4.92124 10.9788 5.11398 11.3802 5.40996 11.6999C5.70594 12.0196 6.09141 12.2426 6.51606 12.3398C6.9407 12.4371 7.38481 12.4041 7.79041 12.2451C8.19601 12.0861 8.54428 11.8086 8.78975 11.4487C9.03522 11.0888 9.16649 10.6632 9.16644 10.2276V2.79426ZM6.16644 10.2276C6.16644 10.0066 6.25424 9.79462 6.41052 9.63834C6.5668 9.48206 6.77876 9.39426 6.99978 9.39426C7.22079 9.39426 7.43275 9.48206 7.58903 9.63834C7.74531 9.79462 7.83311 10.0066 7.83311 10.2276C7.83311 10.4486 7.74531 10.6606 7.58903 10.8169C7.43275 10.9731 7.22079 11.0609 6.99978 11.0609C6.77876 11.0609 6.5668 10.9731 6.41052 10.8169C6.25424 10.6606 6.16644 10.4486 6.16644 10.2276Z" fill="#F8F8F8"/>
</g>
</svg>
